<?xml version="1.0" encoding="iso-8859-1"?>
<!-- Uploaded to: SVG Repo, www.svgrepo.com, Generator: SVG Repo Mixer Tools -->
<svg height="800px" width="800px" version="1.1" id="Layer_1" xmlns="http://www.w3.org/2000/svg" xmlns:xlink="http://www.w3.org/1999/xlink" 
	 viewBox="0 0 512 512" xml:space="preserve">
<circle style="fill:#4A7DBA;" cx="256" cy="256" r="178.087"/>
<ellipse style="fill:#C8F4DE;" cx="256" cy="256" rx="178.087" ry="89.043"/>
<path d="M256,66.783C151.666,66.783,66.783,151.666,66.783,256S151.666,445.217,256,445.217S445.217,360.334,445.217,256
	S360.334,66.783,256,66.783z M122.435,244.87H90.928c5.128-15.282,20.579-30.104,44.123-41.877
	c32.12-16.061,75.075-24.905,120.949-24.905s88.829,8.844,120.949,24.905c29.239,14.62,46.008,33.94,46.008,53.008
	s-16.769,38.388-46.008,53.008c-32.12,16.061-75.075,24.905-120.949,24.905s-88.829-8.844-120.949-24.905
	c-23.544-11.773-38.995-26.595-44.123-41.877h31.507c6.146,0,11.13-4.984,11.13-11.13S128.581,244.87,122.435,244.87z M256,89.043
	c72.213,0,133.858,46.088,157.085,110.392C379.379,172.936,322.16,155.826,256,155.826s-123.379,17.11-157.085,43.609
	C122.142,135.131,183.787,89.043,256,89.043z M256,422.957c-72.213,0-133.858-46.088-157.085-110.392
	c33.706,26.499,90.925,43.609,157.085,43.609s123.379-17.11,157.085-43.609C389.858,376.869,328.213,422.957,256,422.957z"/>
<path d="M256,44.522c6.146,0,11.13-4.984,11.13-11.13V11.13C267.13,4.984,262.146,0,256,0s-11.13,4.984-11.13,11.13v22.261
	C244.87,39.538,249.854,44.522,256,44.522z"/>
<path d="M256,467.478c-6.146,0-11.13,4.984-11.13,11.13v22.261c0,6.146,4.984,11.13,11.13,11.13s11.13-4.984,11.13-11.13v-22.261
	C267.13,472.462,262.146,467.478,256,467.478z"/>
<path d="M145.553,260.263c0.278,0.668,0.624,1.313,1.024,1.914c0.401,0.612,0.868,1.18,1.38,1.692
	c0.512,0.512,1.08,0.981,1.693,1.391c0.601,0.401,1.245,0.735,1.924,1.024c0.669,0.278,1.369,0.49,2.081,0.634
	c0.712,0.145,1.447,0.211,2.17,0.211c0.722,0,1.458-0.068,2.17-0.211c0.712-0.145,1.414-0.356,2.08-0.634
	c0.679-0.278,1.325-0.623,1.926-1.024c0.612-0.411,1.18-0.879,1.692-1.391c0.513-0.512,0.981-1.08,1.38-1.692
	c0.401-0.601,0.746-1.247,1.024-1.914c0.278-0.679,0.501-1.38,0.646-2.093c0.145-0.713,0.211-1.448,0.211-2.17
	c0-0.723-0.068-1.459-0.211-2.17s-0.367-1.415-0.646-2.081c-0.278-0.679-0.612-1.325-1.024-1.924c-0.4-0.613-0.867-1.181-1.38-1.693
	c-0.512-0.512-1.08-0.979-1.692-1.38c-0.601-0.4-1.247-0.746-1.926-1.024c-0.668-0.278-1.368-0.501-2.08-0.633
	c-1.436-0.29-2.905-0.29-4.341,0c-0.712,0.145-1.414,0.355-2.081,0.633c-0.679,0.278-1.323,0.624-1.924,1.024
	c-0.613,0.401-1.181,0.868-1.693,1.38c-0.512,0.512-0.979,1.08-1.38,1.693c-0.4,0.6-0.746,1.245-1.024,1.924
	c-0.278,0.668-0.501,1.369-0.633,2.081c-0.146,0.712-0.223,1.447-0.223,2.17c0,0.722,0.077,1.458,0.223,2.17
	C145.051,258.883,145.274,259.584,145.553,260.263z"/>
</svg>